# xmcd CD database file
# Copyright (C) 1995-1998 Ti Kan
#
# Track frame offsets:
#	150
#	16137
#	30790
#	51045
#	65862
#	83102
#	100837
#	114822
#	150555
#
# Disc length: 2174 seconds
#
# Revision: 1
# Processed by: cddbd v1.4b41PL1 Copyright (c) Steve Scherf et al.
# Submitted via: CDex 1.30
#
DISCID=5c087c09
DTITLE=Big G - Rythem Attack
DYEAR=1998
DGENRE=Blues
TTITLE0=Big G-Rythem Attack
TTITLE1=Big G-Soul Food
TTITLE2=Big G-Hooked On You
TTITLE3=Big G-5th Gear
TTITLE4=Big G-Back Home
TTITLE5=Big G-The High Note
TTITLE6=Big G-G's Shuffle
TTITLE7=Big G-Dry Ice
TTITLE8=Big G-Funky Groove
EXTD=\nYEAR: 1998  ID3G:   0
EXTT0=
EXTT1=
EXTT2=
EXTT3=
EXTT4=
EXTT5=
EXTT6=
EXTT7=
EXTT8=
PLAYORDER=
